<mxfile host="app.diagrams.net" modified="2024-01-29T19:10:40.274Z" agent="Mozilla/5.0 (Windows NT 10.0; Win64; x64; rv:121.0) Gecko/20100101 Firefox/121.0" etag="zY2wSVGTtyAwXj6v4ul_" version="23.0.2" type="device">
  <diagram name="Page-1" id="zAMX6-4pJSDm_beJ3AS8">
    <mxGraphModel dx="1566" dy="2198" grid="1" gridSize="10" guides="1" tooltips="1" connect="1" arrows="1" fold="1" page="1" pageScale="1" pageWidth="827" pageHeight="1169" math="0" shadow="0">
      <root>
        <mxCell id="0" />
        <mxCell id="1" parent="0" />
        <mxCell id="rFi5uDWCLt6j4Qr21LTU-1" value="User" style="whiteSpace=wrap;html=1;align=center;" vertex="1" parent="1">
          <mxGeometry x="240" y="280" width="100" height="40" as="geometry" />
        </mxCell>
        <mxCell id="rFi5uDWCLt6j4Qr21LTU-2" value="Password" style="ellipse;whiteSpace=wrap;html=1;align=center;" vertex="1" parent="1">
          <mxGeometry x="100" y="280" width="100" height="40" as="geometry" />
        </mxCell>
        <mxCell id="rFi5uDWCLt6j4Qr21LTU-3" value="User ID" style="ellipse;whiteSpace=wrap;html=1;align=center;fontStyle=4;" vertex="1" parent="1">
          <mxGeometry x="100" y="210" width="100" height="40" as="geometry" />
        </mxCell>
        <mxCell id="rFi5uDWCLt6j4Qr21LTU-4" value="Username" style="ellipse;whiteSpace=wrap;html=1;align=center;" vertex="1" parent="1">
          <mxGeometry x="100" y="350" width="100" height="40" as="geometry" />
        </mxCell>
        <mxCell id="rFi5uDWCLt6j4Qr21LTU-6" value="" style="endArrow=none;html=1;rounded=0;exitX=1;exitY=0.5;exitDx=0;exitDy=0;entryX=0.25;entryY=1;entryDx=0;entryDy=0;" edge="1" parent="1" source="rFi5uDWCLt6j4Qr21LTU-4" target="rFi5uDWCLt6j4Qr21LTU-1">
          <mxGeometry relative="1" as="geometry">
            <mxPoint x="330" y="350" as="sourcePoint" />
            <mxPoint x="490" y="350" as="targetPoint" />
          </mxGeometry>
        </mxCell>
        <mxCell id="rFi5uDWCLt6j4Qr21LTU-7" value="" style="endArrow=none;html=1;rounded=0;exitX=1;exitY=0.5;exitDx=0;exitDy=0;entryX=0;entryY=0.5;entryDx=0;entryDy=0;" edge="1" parent="1" source="rFi5uDWCLt6j4Qr21LTU-2" target="rFi5uDWCLt6j4Qr21LTU-1">
          <mxGeometry relative="1" as="geometry">
            <mxPoint x="330" y="350" as="sourcePoint" />
            <mxPoint x="490" y="350" as="targetPoint" />
          </mxGeometry>
        </mxCell>
        <mxCell id="rFi5uDWCLt6j4Qr21LTU-8" value="" style="endArrow=none;html=1;rounded=0;exitX=1;exitY=0.5;exitDx=0;exitDy=0;entryX=0.25;entryY=0;entryDx=0;entryDy=0;" edge="1" parent="1" source="rFi5uDWCLt6j4Qr21LTU-3" target="rFi5uDWCLt6j4Qr21LTU-1">
          <mxGeometry relative="1" as="geometry">
            <mxPoint x="330" y="350" as="sourcePoint" />
            <mxPoint x="490" y="350" as="targetPoint" />
          </mxGeometry>
        </mxCell>
        <mxCell id="rFi5uDWCLt6j4Qr21LTU-9" value="ISA" style="triangle;whiteSpace=wrap;html=1;" vertex="1" parent="1">
          <mxGeometry x="360" y="260" width="60" height="80" as="geometry" />
        </mxCell>
        <mxCell id="rFi5uDWCLt6j4Qr21LTU-10" value="Disjoint" style="text;html=1;strokeColor=none;fillColor=none;align=center;verticalAlign=middle;whiteSpace=wrap;rounded=0;rotation=-90;" vertex="1" parent="1">
          <mxGeometry x="400" y="285" width="60" height="30" as="geometry" />
        </mxCell>
        <mxCell id="rFi5uDWCLt6j4Qr21LTU-11" value="Viewer" style="ellipse;whiteSpace=wrap;html=1;align=center;" vertex="1" parent="1">
          <mxGeometry x="470" y="210" width="100" height="40" as="geometry" />
        </mxCell>
        <mxCell id="rFi5uDWCLt6j4Qr21LTU-57" style="edgeStyle=orthogonalEdgeStyle;rounded=0;orthogonalLoop=1;jettySize=auto;html=1;entryX=0;entryY=0.5;entryDx=0;entryDy=0;endArrow=none;endFill=0;" edge="1" parent="1" source="rFi5uDWCLt6j4Qr21LTU-12" target="rFi5uDWCLt6j4Qr21LTU-19">
          <mxGeometry relative="1" as="geometry" />
        </mxCell>
        <mxCell id="rFi5uDWCLt6j4Qr21LTU-12" value="Normal" style="ellipse;whiteSpace=wrap;html=1;align=center;" vertex="1" parent="1">
          <mxGeometry x="470" y="280" width="100" height="40" as="geometry" />
        </mxCell>
        <mxCell id="rFi5uDWCLt6j4Qr21LTU-42" style="edgeStyle=orthogonalEdgeStyle;rounded=0;orthogonalLoop=1;jettySize=auto;html=1;entryX=0.5;entryY=1;entryDx=0;entryDy=0;endArrow=none;endFill=0;" edge="1" parent="1" source="rFi5uDWCLt6j4Qr21LTU-13" target="rFi5uDWCLt6j4Qr21LTU-41">
          <mxGeometry relative="1" as="geometry">
            <Array as="points">
              <mxPoint x="520" y="550" />
              <mxPoint x="1241" y="550" />
            </Array>
          </mxGeometry>
        </mxCell>
        <mxCell id="rFi5uDWCLt6j4Qr21LTU-55" style="edgeStyle=orthogonalEdgeStyle;rounded=0;orthogonalLoop=1;jettySize=auto;html=1;entryX=0;entryY=0.5;entryDx=0;entryDy=0;endArrow=none;endFill=0;" edge="1" parent="1" source="rFi5uDWCLt6j4Qr21LTU-13" target="rFi5uDWCLt6j4Qr21LTU-19">
          <mxGeometry relative="1" as="geometry" />
        </mxCell>
        <mxCell id="rFi5uDWCLt6j4Qr21LTU-13" value="Admin" style="ellipse;whiteSpace=wrap;html=1;align=center;" vertex="1" parent="1">
          <mxGeometry x="470" y="350" width="100" height="40" as="geometry" />
        </mxCell>
        <mxCell id="rFi5uDWCLt6j4Qr21LTU-14" value="" style="endArrow=none;html=1;rounded=0;exitX=0.5;exitY=0;exitDx=0;exitDy=0;entryX=0;entryY=0.5;entryDx=0;entryDy=0;" edge="1" parent="1" source="rFi5uDWCLt6j4Qr21LTU-10" target="rFi5uDWCLt6j4Qr21LTU-12">
          <mxGeometry relative="1" as="geometry">
            <mxPoint x="330" y="330" as="sourcePoint" />
            <mxPoint x="490" y="330" as="targetPoint" />
          </mxGeometry>
        </mxCell>
        <mxCell id="rFi5uDWCLt6j4Qr21LTU-15" value="" style="endArrow=none;html=1;rounded=0;exitX=0.5;exitY=0;exitDx=0;exitDy=0;entryX=0;entryY=0.5;entryDx=0;entryDy=0;" edge="1" parent="1" source="rFi5uDWCLt6j4Qr21LTU-9" target="rFi5uDWCLt6j4Qr21LTU-11">
          <mxGeometry relative="1" as="geometry">
            <mxPoint x="330" y="330" as="sourcePoint" />
            <mxPoint x="490" y="330" as="targetPoint" />
          </mxGeometry>
        </mxCell>
        <mxCell id="rFi5uDWCLt6j4Qr21LTU-16" value="" style="endArrow=none;html=1;rounded=0;exitX=0.5;exitY=1;exitDx=0;exitDy=0;entryX=0;entryY=0.5;entryDx=0;entryDy=0;" edge="1" parent="1" source="rFi5uDWCLt6j4Qr21LTU-9" target="rFi5uDWCLt6j4Qr21LTU-13">
          <mxGeometry relative="1" as="geometry">
            <mxPoint x="330" y="330" as="sourcePoint" />
            <mxPoint x="490" y="330" as="targetPoint" />
          </mxGeometry>
        </mxCell>
        <mxCell id="rFi5uDWCLt6j4Qr21LTU-17" value="" style="endArrow=none;html=1;rounded=0;exitX=1;exitY=0.5;exitDx=0;exitDy=0;entryX=0;entryY=0.5;entryDx=0;entryDy=0;" edge="1" parent="1" source="rFi5uDWCLt6j4Qr21LTU-1" target="rFi5uDWCLt6j4Qr21LTU-9">
          <mxGeometry relative="1" as="geometry">
            <mxPoint x="270" y="370" as="sourcePoint" />
            <mxPoint x="430" y="370" as="targetPoint" />
          </mxGeometry>
        </mxCell>
        <mxCell id="rFi5uDWCLt6j4Qr21LTU-45" style="edgeStyle=orthogonalEdgeStyle;rounded=0;orthogonalLoop=1;jettySize=auto;html=1;entryX=0;entryY=0.5;entryDx=0;entryDy=0;endArrow=none;endFill=0;" edge="1" parent="1" source="rFi5uDWCLt6j4Qr21LTU-18" target="rFi5uDWCLt6j4Qr21LTU-20">
          <mxGeometry relative="1" as="geometry" />
        </mxCell>
        <mxCell id="rFi5uDWCLt6j4Qr21LTU-18" value="View" style="shape=rhombus;perimeter=rhombusPerimeter;whiteSpace=wrap;html=1;align=center;" vertex="1" parent="1">
          <mxGeometry x="630" y="180" width="120" height="60" as="geometry" />
        </mxCell>
        <mxCell id="rFi5uDWCLt6j4Qr21LTU-46" style="edgeStyle=orthogonalEdgeStyle;rounded=0;orthogonalLoop=1;jettySize=auto;html=1;entryX=0;entryY=0.5;entryDx=0;entryDy=0;endArrow=none;endFill=0;" edge="1" parent="1" source="rFi5uDWCLt6j4Qr21LTU-19" target="rFi5uDWCLt6j4Qr21LTU-20">
          <mxGeometry relative="1" as="geometry" />
        </mxCell>
        <mxCell id="rFi5uDWCLt6j4Qr21LTU-19" value="&lt;div&gt;Create/update/&lt;/div&gt;&lt;div&gt;delete&lt;/div&gt;" style="shape=rhombus;perimeter=rhombusPerimeter;whiteSpace=wrap;html=1;align=center;" vertex="1" parent="1">
          <mxGeometry x="630" y="300" width="120" height="60" as="geometry" />
        </mxCell>
        <mxCell id="rFi5uDWCLt6j4Qr21LTU-51" style="edgeStyle=orthogonalEdgeStyle;rounded=0;orthogonalLoop=1;jettySize=auto;html=1;" edge="1" parent="1" source="rFi5uDWCLt6j4Qr21LTU-20" target="rFi5uDWCLt6j4Qr21LTU-38">
          <mxGeometry relative="1" as="geometry" />
        </mxCell>
        <mxCell id="rFi5uDWCLt6j4Qr21LTU-20" value="Asset" style="whiteSpace=wrap;html=1;align=center;" vertex="1" parent="1">
          <mxGeometry x="890" y="250" width="100" height="40" as="geometry" />
        </mxCell>
        <mxCell id="rFi5uDWCLt6j4Qr21LTU-29" style="edgeStyle=orthogonalEdgeStyle;rounded=0;orthogonalLoop=1;jettySize=auto;html=1;entryX=0.5;entryY=1;entryDx=0;entryDy=0;" edge="1" parent="1" source="rFi5uDWCLt6j4Qr21LTU-21" target="rFi5uDWCLt6j4Qr21LTU-20">
          <mxGeometry relative="1" as="geometry" />
        </mxCell>
        <mxCell id="rFi5uDWCLt6j4Qr21LTU-21" value="Document" style="shape=ext;margin=3;double=1;whiteSpace=wrap;html=1;align=center;" vertex="1" parent="1">
          <mxGeometry x="890" y="380" width="100" height="40" as="geometry" />
        </mxCell>
        <mxCell id="rFi5uDWCLt6j4Qr21LTU-23" value="&lt;div&gt;Link to file&lt;/div&gt;&lt;div&gt;(external)&lt;br&gt;&lt;/div&gt;" style="ellipse;whiteSpace=wrap;html=1;align=center;" vertex="1" parent="1">
          <mxGeometry x="960" y="450" width="100" height="40" as="geometry" />
        </mxCell>
        <mxCell id="rFi5uDWCLt6j4Qr21LTU-30" value="&lt;div&gt;Indicate link to&lt;/div&gt;&lt;div&gt;another asset&lt;br&gt;&lt;/div&gt;" style="shape=rhombus;perimeter=rhombusPerimeter;whiteSpace=wrap;html=1;align=center;" vertex="1" parent="1">
          <mxGeometry x="1010" y="315" width="120" height="60" as="geometry" />
        </mxCell>
        <mxCell id="rFi5uDWCLt6j4Qr21LTU-31" value="&lt;span style=&quot;border-bottom: 1px dotted&quot;&gt;Document ID&lt;br&gt;&lt;/span&gt;" style="ellipse;whiteSpace=wrap;html=1;align=center;" vertex="1" parent="1">
          <mxGeometry x="820" y="450" width="100" height="40" as="geometry" />
        </mxCell>
        <mxCell id="rFi5uDWCLt6j4Qr21LTU-32" value="" style="endArrow=none;html=1;rounded=0;exitX=0.25;exitY=1;exitDx=0;exitDy=0;entryX=0.5;entryY=0;entryDx=0;entryDy=0;" edge="1" parent="1" source="rFi5uDWCLt6j4Qr21LTU-21" target="rFi5uDWCLt6j4Qr21LTU-31">
          <mxGeometry relative="1" as="geometry">
            <mxPoint x="900" y="390" as="sourcePoint" />
            <mxPoint x="1060" y="390" as="targetPoint" />
          </mxGeometry>
        </mxCell>
        <mxCell id="rFi5uDWCLt6j4Qr21LTU-33" value="" style="endArrow=none;html=1;rounded=0;exitX=0.75;exitY=1;exitDx=0;exitDy=0;entryX=0.5;entryY=0;entryDx=0;entryDy=0;" edge="1" parent="1" source="rFi5uDWCLt6j4Qr21LTU-21" target="rFi5uDWCLt6j4Qr21LTU-23">
          <mxGeometry relative="1" as="geometry">
            <mxPoint x="900" y="390" as="sourcePoint" />
            <mxPoint x="1060" y="390" as="targetPoint" />
          </mxGeometry>
        </mxCell>
        <mxCell id="rFi5uDWCLt6j4Qr21LTU-34" value="" style="endArrow=none;html=1;rounded=0;exitX=0.75;exitY=1;exitDx=0;exitDy=0;entryX=0;entryY=0;entryDx=0;entryDy=0;" edge="1" parent="1" source="rFi5uDWCLt6j4Qr21LTU-20" target="rFi5uDWCLt6j4Qr21LTU-30">
          <mxGeometry relative="1" as="geometry">
            <mxPoint x="900" y="390" as="sourcePoint" />
            <mxPoint x="1060" y="390" as="targetPoint" />
          </mxGeometry>
        </mxCell>
        <mxCell id="rFi5uDWCLt6j4Qr21LTU-35" value="" style="endArrow=none;html=1;rounded=0;exitX=1;exitY=0.5;exitDx=0;exitDy=0;entryX=0.5;entryY=0;entryDx=0;entryDy=0;" edge="1" parent="1" source="rFi5uDWCLt6j4Qr21LTU-20" target="rFi5uDWCLt6j4Qr21LTU-30">
          <mxGeometry relative="1" as="geometry">
            <mxPoint x="900" y="390" as="sourcePoint" />
            <mxPoint x="1060" y="390" as="targetPoint" />
          </mxGeometry>
        </mxCell>
        <mxCell id="rFi5uDWCLt6j4Qr21LTU-36" value="Asset ID" style="ellipse;whiteSpace=wrap;html=1;align=center;fontStyle=4;" vertex="1" parent="1">
          <mxGeometry x="790" y="160" width="100" height="40" as="geometry" />
        </mxCell>
        <mxCell id="rFi5uDWCLt6j4Qr21LTU-37" value="Title" style="ellipse;whiteSpace=wrap;html=1;align=center;" vertex="1" parent="1">
          <mxGeometry x="990" y="160" width="100" height="40" as="geometry" />
        </mxCell>
        <mxCell id="rFi5uDWCLt6j4Qr21LTU-38" value="Asset type" style="shape=ext;margin=3;double=1;whiteSpace=wrap;html=1;align=center;" vertex="1" parent="1">
          <mxGeometry x="1191" y="250" width="100" height="40" as="geometry" />
        </mxCell>
        <mxCell id="rFi5uDWCLt6j4Qr21LTU-39" value="&lt;span style=&quot;border-bottom: 1px dotted&quot;&gt;Type ID&lt;/span&gt;" style="ellipse;whiteSpace=wrap;html=1;align=center;" vertex="1" parent="1">
          <mxGeometry x="1170" y="180" width="100" height="40" as="geometry" />
        </mxCell>
        <mxCell id="rFi5uDWCLt6j4Qr21LTU-40" value="Type name/identifier" style="ellipse;whiteSpace=wrap;html=1;align=center;" vertex="1" parent="1">
          <mxGeometry x="1310" y="220" width="100" height="40" as="geometry" />
        </mxCell>
        <mxCell id="rFi5uDWCLt6j4Qr21LTU-44" style="edgeStyle=orthogonalEdgeStyle;rounded=0;orthogonalLoop=1;jettySize=auto;html=1;entryX=0.5;entryY=1;entryDx=0;entryDy=0;endArrow=none;endFill=0;" edge="1" parent="1" source="rFi5uDWCLt6j4Qr21LTU-41" target="rFi5uDWCLt6j4Qr21LTU-38">
          <mxGeometry relative="1" as="geometry" />
        </mxCell>
        <mxCell id="rFi5uDWCLt6j4Qr21LTU-41" value="&lt;div&gt;Create/update/&lt;/div&gt;&lt;div&gt;delete&lt;/div&gt;" style="shape=rhombus;perimeter=rhombusPerimeter;whiteSpace=wrap;html=1;align=center;" vertex="1" parent="1">
          <mxGeometry x="1181" y="360" width="120" height="60" as="geometry" />
        </mxCell>
        <mxCell id="rFi5uDWCLt6j4Qr21LTU-47" value="" style="endArrow=none;html=1;rounded=0;exitX=1;exitY=0.5;exitDx=0;exitDy=0;entryX=0.5;entryY=1;entryDx=0;entryDy=0;" edge="1" parent="1" source="rFi5uDWCLt6j4Qr21LTU-38" target="rFi5uDWCLt6j4Qr21LTU-40">
          <mxGeometry relative="1" as="geometry">
            <mxPoint x="1000" y="370" as="sourcePoint" />
            <mxPoint x="1160" y="370" as="targetPoint" />
          </mxGeometry>
        </mxCell>
        <mxCell id="rFi5uDWCLt6j4Qr21LTU-48" value="" style="endArrow=none;html=1;rounded=0;exitX=0.5;exitY=0;exitDx=0;exitDy=0;entryX=0.5;entryY=1;entryDx=0;entryDy=0;" edge="1" parent="1" source="rFi5uDWCLt6j4Qr21LTU-38" target="rFi5uDWCLt6j4Qr21LTU-39">
          <mxGeometry relative="1" as="geometry">
            <mxPoint x="1000" y="370" as="sourcePoint" />
            <mxPoint x="1160" y="330" as="targetPoint" />
          </mxGeometry>
        </mxCell>
        <mxCell id="rFi5uDWCLt6j4Qr21LTU-49" value="" style="endArrow=none;html=1;rounded=0;exitX=0.5;exitY=1;exitDx=0;exitDy=0;entryX=0.25;entryY=0;entryDx=0;entryDy=0;" edge="1" parent="1" source="rFi5uDWCLt6j4Qr21LTU-36" target="rFi5uDWCLt6j4Qr21LTU-20">
          <mxGeometry relative="1" as="geometry">
            <mxPoint x="1000" y="300" as="sourcePoint" />
            <mxPoint x="1160" y="300" as="targetPoint" />
          </mxGeometry>
        </mxCell>
        <mxCell id="rFi5uDWCLt6j4Qr21LTU-50" value="" style="endArrow=none;html=1;rounded=0;entryX=0.5;entryY=1;entryDx=0;entryDy=0;exitX=0.75;exitY=0;exitDx=0;exitDy=0;" edge="1" parent="1" source="rFi5uDWCLt6j4Qr21LTU-20" target="rFi5uDWCLt6j4Qr21LTU-37">
          <mxGeometry relative="1" as="geometry">
            <mxPoint x="1000" y="300" as="sourcePoint" />
            <mxPoint x="1160" y="300" as="targetPoint" />
          </mxGeometry>
        </mxCell>
        <mxCell id="rFi5uDWCLt6j4Qr21LTU-52" value="" style="endArrow=none;html=1;rounded=0;exitX=1;exitY=0.5;exitDx=0;exitDy=0;entryX=0;entryY=0.5;entryDx=0;entryDy=0;" edge="1" parent="1" source="rFi5uDWCLt6j4Qr21LTU-11" target="rFi5uDWCLt6j4Qr21LTU-18">
          <mxGeometry relative="1" as="geometry">
            <mxPoint x="550" y="350" as="sourcePoint" />
            <mxPoint x="710" y="350" as="targetPoint" />
          </mxGeometry>
        </mxCell>
        <mxCell id="rFi5uDWCLt6j4Qr21LTU-65" style="edgeStyle=orthogonalEdgeStyle;rounded=0;orthogonalLoop=1;jettySize=auto;html=1;entryX=0.5;entryY=0;entryDx=0;entryDy=0;" edge="1" parent="1" source="rFi5uDWCLt6j4Qr21LTU-58" target="rFi5uDWCLt6j4Qr21LTU-1">
          <mxGeometry relative="1" as="geometry" />
        </mxCell>
        <mxCell id="rFi5uDWCLt6j4Qr21LTU-66" style="edgeStyle=orthogonalEdgeStyle;rounded=0;orthogonalLoop=1;jettySize=auto;html=1;entryX=0;entryY=0.5;entryDx=0;entryDy=0;endArrow=none;endFill=0;" edge="1" parent="1" source="rFi5uDWCLt6j4Qr21LTU-58" target="rFi5uDWCLt6j4Qr21LTU-60">
          <mxGeometry relative="1" as="geometry" />
        </mxCell>
        <mxCell id="rFi5uDWCLt6j4Qr21LTU-58" value="&lt;div&gt;Create/update/&lt;/div&gt;&lt;div&gt;delete&lt;/div&gt;" style="shape=rhombus;perimeter=rhombusPerimeter;whiteSpace=wrap;html=1;align=center;" vertex="1" parent="1">
          <mxGeometry x="340" y="60" width="120" height="60" as="geometry" />
        </mxCell>
        <mxCell id="rFi5uDWCLt6j4Qr21LTU-63" style="edgeStyle=orthogonalEdgeStyle;rounded=0;orthogonalLoop=1;jettySize=auto;html=1;entryX=0.5;entryY=0;entryDx=0;entryDy=0;" edge="1" parent="1" source="rFi5uDWCLt6j4Qr21LTU-60" target="rFi5uDWCLt6j4Qr21LTU-20">
          <mxGeometry relative="1" as="geometry" />
        </mxCell>
        <mxCell id="rFi5uDWCLt6j4Qr21LTU-85" style="edgeStyle=orthogonalEdgeStyle;rounded=0;orthogonalLoop=1;jettySize=auto;html=1;entryX=0;entryY=0.5;entryDx=0;entryDy=0;endArrow=none;endFill=0;" edge="1" parent="1" source="rFi5uDWCLt6j4Qr21LTU-60" target="rFi5uDWCLt6j4Qr21LTU-62">
          <mxGeometry relative="1" as="geometry" />
        </mxCell>
        <mxCell id="rFi5uDWCLt6j4Qr21LTU-60" value="Log" style="shape=ext;margin=3;double=1;whiteSpace=wrap;html=1;align=center;" vertex="1" parent="1">
          <mxGeometry x="890" y="-40" width="100" height="40" as="geometry" />
        </mxCell>
        <mxCell id="rFi5uDWCLt6j4Qr21LTU-61" value="&lt;span style=&quot;border-bottom: 1px dotted&quot;&gt;Log ID&lt;br&gt;&lt;/span&gt;" style="ellipse;whiteSpace=wrap;html=1;align=center;" vertex="1" parent="1">
          <mxGeometry x="810" y="30" width="100" height="40" as="geometry" />
        </mxCell>
        <mxCell id="rFi5uDWCLt6j4Qr21LTU-62" value="Timestamp" style="ellipse;whiteSpace=wrap;html=1;align=center;" vertex="1" parent="1">
          <mxGeometry x="1020" y="-40" width="100" height="40" as="geometry" />
        </mxCell>
        <mxCell id="rFi5uDWCLt6j4Qr21LTU-74" style="edgeStyle=orthogonalEdgeStyle;rounded=0;orthogonalLoop=1;jettySize=auto;html=1;entryX=0.5;entryY=0;entryDx=0;entryDy=0;" edge="1" parent="1" source="rFi5uDWCLt6j4Qr21LTU-67" target="rFi5uDWCLt6j4Qr21LTU-39">
          <mxGeometry relative="1" as="geometry" />
        </mxCell>
        <mxCell id="rFi5uDWCLt6j4Qr21LTU-78" style="edgeStyle=orthogonalEdgeStyle;rounded=0;orthogonalLoop=1;jettySize=auto;html=1;entryX=1;entryY=0.5;entryDx=0;entryDy=0;" edge="1" parent="1" source="rFi5uDWCLt6j4Qr21LTU-67" target="rFi5uDWCLt6j4Qr21LTU-75">
          <mxGeometry relative="1" as="geometry" />
        </mxCell>
        <mxCell id="rFi5uDWCLt6j4Qr21LTU-67" value="Associated with" style="shape=rhombus;perimeter=rhombusPerimeter;whiteSpace=wrap;html=1;align=center;" vertex="1" parent="1">
          <mxGeometry x="450" y="-120" width="120" height="60" as="geometry" />
        </mxCell>
        <mxCell id="rFi5uDWCLt6j4Qr21LTU-71" value="" style="endArrow=classic;html=1;rounded=0;exitX=1;exitY=1;exitDx=0;exitDy=0;entryX=0.5;entryY=0;entryDx=0;entryDy=0;endFill=1;" edge="1" parent="1" source="rFi5uDWCLt6j4Qr21LTU-67" target="rFi5uDWCLt6j4Qr21LTU-36">
          <mxGeometry relative="1" as="geometry">
            <mxPoint x="660" y="160" as="sourcePoint" />
            <mxPoint x="820" y="160" as="targetPoint" />
          </mxGeometry>
        </mxCell>
        <mxCell id="rFi5uDWCLt6j4Qr21LTU-72" value="" style="endArrow=classic;html=1;rounded=0;exitX=0;exitY=0.5;exitDx=0;exitDy=0;entryX=0.5;entryY=0;entryDx=0;entryDy=0;endFill=1;" edge="1" parent="1" source="rFi5uDWCLt6j4Qr21LTU-67" target="rFi5uDWCLt6j4Qr21LTU-3">
          <mxGeometry relative="1" as="geometry">
            <mxPoint x="530" y="160" as="sourcePoint" />
            <mxPoint x="690" y="160" as="targetPoint" />
          </mxGeometry>
        </mxCell>
        <mxCell id="rFi5uDWCLt6j4Qr21LTU-73" value="" style="endArrow=classic;html=1;rounded=0;exitX=1;exitY=0.5;exitDx=0;exitDy=0;entryX=0.5;entryY=0;entryDx=0;entryDy=0;endFill=1;" edge="1" parent="1" source="rFi5uDWCLt6j4Qr21LTU-67" target="rFi5uDWCLt6j4Qr21LTU-61">
          <mxGeometry relative="1" as="geometry">
            <mxPoint x="530" y="160" as="sourcePoint" />
            <mxPoint x="690" y="160" as="targetPoint" />
          </mxGeometry>
        </mxCell>
        <mxCell id="rFi5uDWCLt6j4Qr21LTU-79" value="" style="edgeStyle=orthogonalEdgeStyle;rounded=0;orthogonalLoop=1;jettySize=auto;html=1;endArrow=none;endFill=0;" edge="1" parent="1" source="rFi5uDWCLt6j4Qr21LTU-75" target="rFi5uDWCLt6j4Qr21LTU-76">
          <mxGeometry relative="1" as="geometry" />
        </mxCell>
        <mxCell id="rFi5uDWCLt6j4Qr21LTU-80" style="edgeStyle=orthogonalEdgeStyle;rounded=0;orthogonalLoop=1;jettySize=auto;html=1;entryX=1;entryY=0.5;entryDx=0;entryDy=0;endArrow=none;endFill=0;" edge="1" parent="1" source="rFi5uDWCLt6j4Qr21LTU-75" target="rFi5uDWCLt6j4Qr21LTU-77">
          <mxGeometry relative="1" as="geometry" />
        </mxCell>
        <mxCell id="rFi5uDWCLt6j4Qr21LTU-75" value="Project" style="shape=ext;margin=3;double=1;whiteSpace=wrap;html=1;align=center;" vertex="1" parent="1">
          <mxGeometry x="160" y="-110" width="100" height="40" as="geometry" />
        </mxCell>
        <mxCell id="rFi5uDWCLt6j4Qr21LTU-76" value="&lt;span style=&quot;border-bottom: 1px dotted&quot;&gt;Project ID&lt;/span&gt;" style="ellipse;whiteSpace=wrap;html=1;align=center;" vertex="1" parent="1">
          <mxGeometry x="160" y="-200" width="100" height="40" as="geometry" />
        </mxCell>
        <mxCell id="rFi5uDWCLt6j4Qr21LTU-77" value="Project name" style="ellipse;whiteSpace=wrap;html=1;align=center;" vertex="1" parent="1">
          <mxGeometry x="10" y="-110" width="100" height="40" as="geometry" />
        </mxCell>
        <mxCell id="rFi5uDWCLt6j4Qr21LTU-81" value="Designated board" style="shape=rhombus;perimeter=rhombusPerimeter;whiteSpace=wrap;html=1;align=center;" vertex="1" parent="1">
          <mxGeometry x="80" y="-30" width="120" height="60" as="geometry" />
        </mxCell>
        <mxCell id="rFi5uDWCLt6j4Qr21LTU-82" value="Discussion board" style="shape=ext;margin=3;double=1;whiteSpace=wrap;html=1;align=center;" vertex="1" parent="1">
          <mxGeometry x="20" y="80" width="100" height="40" as="geometry" />
        </mxCell>
        <mxCell id="rFi5uDWCLt6j4Qr21LTU-83" value="" style="endArrow=classic;html=1;rounded=0;exitX=0;exitY=1;exitDx=0;exitDy=0;entryX=0.5;entryY=0;entryDx=0;entryDy=0;endFill=1;" edge="1" parent="1" source="rFi5uDWCLt6j4Qr21LTU-81" target="rFi5uDWCLt6j4Qr21LTU-82">
          <mxGeometry relative="1" as="geometry">
            <mxPoint x="150" y="160" as="sourcePoint" />
            <mxPoint x="310" y="160" as="targetPoint" />
          </mxGeometry>
        </mxCell>
        <mxCell id="rFi5uDWCLt6j4Qr21LTU-84" value="" style="endArrow=classic;html=1;rounded=0;exitX=1;exitY=0;exitDx=0;exitDy=0;entryX=0.5;entryY=1;entryDx=0;entryDy=0;endFill=1;" edge="1" parent="1" source="rFi5uDWCLt6j4Qr21LTU-81" target="rFi5uDWCLt6j4Qr21LTU-75">
          <mxGeometry relative="1" as="geometry">
            <mxPoint x="150" y="160" as="sourcePoint" />
            <mxPoint x="310" y="160" as="targetPoint" />
          </mxGeometry>
        </mxCell>
      </root>
    </mxGraphModel>
  </diagram>
</mxfile>
